<?xml version="1.0" encoding="UTF-8"?>
<svg xmlns="http://www.w3.org/2000/svg" xmlns:xlink="http://www.w3.org/1999/xlink" width="349px" height="100px" viewBox="0 0 174 50" version="1.1">
<defs>
<clipPath id="clip1">
  <path d="M 0.429688 2.761719 L 42.269531 2.761719 L 42.269531 47 L 0.429688 47 Z M 0.429688 2.761719 "/>
</clipPath>
<clipPath id="clip2">
  <path d="M 24.5625 23.359375 L 5.8125 23.359375 C 5.085938 23.359375 4.558594 22.664062 4.753906 21.960938 L 9.902344 3.5625 C 10.035156 3.089844 10.46875 2.761719 10.957031 2.761719 L 29.707031 2.761719 C 30.4375 2.761719 30.964844 3.457031 30.765625 4.160156 L 25.617188 22.558594 C 25.488281 23.03125 25.054688 23.359375 24.5625 23.359375 Z M 12.382812 37.246094 L 15.03125 27.773438 C 15.230469 27.074219 14.703125 26.375 13.976562 26.375 L 4.335938 26.375 C 3.847656 26.375 3.414062 26.703125 3.28125 27.179688 L 0.632812 36.652344 C 0.433594 37.355469 0.960938 38.050781 1.6875 38.050781 L 11.328125 38.050781 C 11.816406 38.050781 12.25 37.722656 12.382812 37.246094 Z M 17.261719 27.179688 L 12.113281 45.578125 C 11.917969 46.277344 12.445312 46.976562 13.171875 46.976562 L 31.917969 46.976562 C 32.410156 46.976562 32.84375 46.648438 32.976562 46.171875 L 38.125 27.773438 C 38.320312 27.074219 37.796875 26.375 37.066406 26.375 L 18.316406 26.375 C 17.828125 26.375 17.394531 26.703125 17.261719 27.179688 Z M 30.496094 12.488281 L 27.84375 21.960938 C 27.648438 22.664062 28.175781 23.359375 28.902344 23.359375 L 38.539062 23.359375 C 39.035156 23.359375 39.464844 23.03125 39.597656 22.558594 L 42.25 13.082031 C 42.445312 12.378906 41.917969 11.683594 41.191406 11.683594 L 31.550781 11.683594 C 31.0625 11.683594 30.628906 12.011719 30.496094 12.488281 Z M 30.496094 12.488281 "/>
</clipPath>
<linearGradient id="linear0" gradientUnits="userSpaceOnUse" x1="114.29645" y1="-47.63395" x2="358.333394" y2="546.931232" gradientTransform="matrix(0.0881779,0,0,0.0884313,0.588871,2.760184)">
<stop offset="0" style="stop-color:rgb(36.078431%,88.235294%,90.196078%);stop-opacity:1;"/>
<stop offset="0.0625" style="stop-color:rgb(36.078431%,88.235294%,90.196078%);stop-opacity:1;"/>
<stop offset="0.09375" style="stop-color:rgb(36.078431%,88.235294%,90.196078%);stop-opacity:1;"/>
<stop offset="0.109375" style="stop-color:rgb(36.078431%,87.843137%,90.196078%);stop-opacity:1;"/>
<stop offset="0.125" style="stop-color:rgb(35.686275%,87.45098%,90.588235%);stop-opacity:1;"/>
<stop offset="0.140625" style="stop-color:rgb(35.294118%,87.058824%,90.588235%);stop-opacity:1;"/>
<stop offset="0.15625" style="stop-color:rgb(34.901961%,87.058824%,90.980392%);stop-opacity:1;"/>
<stop offset="0.171875" style="stop-color:rgb(34.901961%,86.666667%,90.980392%);stop-opacity:1;"/>
<stop offset="0.1875" style="stop-color:rgb(34.509804%,86.27451%,91.372549%);stop-opacity:1;"/>
<stop offset="0.203125" style="stop-color:rgb(34.117647%,85.882353%,91.764706%);stop-opacity:1;"/>
<stop offset="0.21875" style="stop-color:rgb(33.72549%,85.490196%,91.764706%);stop-opacity:1;"/>
<stop offset="0.234375" style="stop-color:rgb(33.333333%,85.098039%,92.156863%);stop-opacity:1;"/>
<stop offset="0.25" style="stop-color:rgb(33.333333%,84.705882%,92.156863%);stop-opacity:1;"/>
<stop offset="0.265625" style="stop-color:rgb(32.941176%,84.313725%,92.54902%);stop-opacity:1;"/>
<stop offset="0.280295" style="stop-color:rgb(32.54902%,83.921569%,92.54902%);stop-opacity:1;"/>
<stop offset="0.28125" style="stop-color:rgb(32.54902%,83.921569%,92.54902%);stop-opacity:1;"/>
<stop offset="0.296875" style="stop-color:rgb(32.156863%,83.529412%,92.941176%);stop-opacity:1;"/>
<stop offset="0.3125" style="stop-color:rgb(32.156863%,83.529412%,92.941176%);stop-opacity:1;"/>
<stop offset="0.328125" style="stop-color:rgb(31.764706%,83.137255%,93.333333%);stop-opacity:1;"/>
<stop offset="0.34375" style="stop-color:rgb(31.372549%,82.745098%,93.333333%);stop-opacity:1;"/>
<stop offset="0.359375" style="stop-color:rgb(30.980392%,82.352941%,93.72549%);stop-opacity:1;"/>
<stop offset="0.375" style="stop-color:rgb(30.980392%,81.960784%,93.72549%);stop-opacity:1;"/>
<stop offset="0.390625" style="stop-color:rgb(30.588235%,81.568627%,94.117647%);stop-opacity:1;"/>
<stop offset="0.40625" style="stop-color:rgb(30.196078%,81.176471%,94.117647%);stop-opacity:1;"/>
<stop offset="0.421875" style="stop-color:rgb(29.803922%,80.784314%,94.509804%);stop-opacity:1;"/>
<stop offset="0.4375" style="stop-color:rgb(29.803922%,80.392157%,94.509804%);stop-opacity:1;"/>
<stop offset="0.453125" style="stop-color:rgb(29.411765%,80%,94.901961%);stop-opacity:1;"/>
<stop offset="0.46875" style="stop-color:rgb(29.019608%,80%,94.901961%);stop-opacity:1;"/>
<stop offset="0.484375" style="stop-color:rgb(28.627451%,79.607843%,95.294118%);stop-opacity:1;"/>
<stop offset="0.5" style="stop-color:rgb(28.627451%,79.215686%,95.686275%);stop-opacity:1;"/>
<stop offset="0.515625" style="stop-color:rgb(28.235294%,78.823529%,95.686275%);stop-opacity:1;"/>
<stop offset="0.53125" style="stop-color:rgb(27.843137%,78.431373%,96.078431%);stop-opacity:1;"/>
<stop offset="0.546875" style="stop-color:rgb(27.45098%,78.039216%,96.078431%);stop-opacity:1;"/>
<stop offset="0.5625" style="stop-color:rgb(27.45098%,77.647059%,96.470588%);stop-opacity:1;"/>
<stop offset="0.578125" style="stop-color:rgb(27.058824%,77.254902%,96.470588%);stop-opacity:1;"/>
<stop offset="0.59375" style="stop-color:rgb(26.666667%,76.862745%,96.862745%);stop-opacity:1;"/>
<stop offset="0.609375" style="stop-color:rgb(26.27451%,76.470588%,96.862745%);stop-opacity:1;"/>
<stop offset="0.625" style="stop-color:rgb(26.27451%,76.470588%,97.254902%);stop-opacity:1;"/>
<stop offset="0.640625" style="stop-color:rgb(25.882353%,76.078431%,97.254902%);stop-opacity:1;"/>
<stop offset="0.65625" style="stop-color:rgb(25.490196%,75.686275%,97.647059%);stop-opacity:1;"/>
<stop offset="0.671875" style="stop-color:rgb(25.098039%,75.294118%,97.647059%);stop-opacity:1;"/>
<stop offset="0.6875" style="stop-color:rgb(25.098039%,74.901961%,98.039216%);stop-opacity:1;"/>
<stop offset="0.703125" style="stop-color:rgb(24.705882%,74.509804%,98.039216%);stop-opacity:1;"/>
<stop offset="0.71875" style="stop-color:rgb(24.313725%,74.117647%,98.431373%);stop-opacity:1;"/>
<stop offset="0.719705" style="stop-color:rgb(23.921569%,73.72549%,98.431373%);stop-opacity:1;"/>
<stop offset="0.734375" style="stop-color:rgb(23.921569%,73.72549%,98.823529%);stop-opacity:1;"/>
<stop offset="0.75" style="stop-color:rgb(23.529412%,73.333333%,98.823529%);stop-opacity:1;"/>
<stop offset="0.765625" style="stop-color:rgb(23.529412%,72.941176%,98.823529%);stop-opacity:1;"/>
<stop offset="0.78125" style="stop-color:rgb(23.137255%,72.941176%,99.215686%);stop-opacity:1;"/>
<stop offset="0.796875" style="stop-color:rgb(22.745098%,72.54902%,99.607843%);stop-opacity:1;"/>
<stop offset="0.8125" style="stop-color:rgb(22.352941%,72.156863%,99.607843%);stop-opacity:1;"/>
<stop offset="0.828125" style="stop-color:rgb(22.352941%,71.764706%,100%);stop-opacity:1;"/>
<stop offset="0.84375" style="stop-color:rgb(21.960784%,71.372549%,100%);stop-opacity:1;"/>
<stop offset="0.875" style="stop-color:rgb(21.960784%,71.372549%,100%);stop-opacity:1;"/>
<stop offset="1" style="stop-color:rgb(21.960784%,71.372549%,100%);stop-opacity:1;"/>
</linearGradient>
</defs>
<g id="surface1">
<g clip-path="url(#clip1)" clip-rule="nonzero">
<g clip-path="url(#clip2)" clip-rule="nonzero">
<path style=" stroke:none;fill-rule:nonzero;fill:url(#linear0);" d="M 0.433594 2.761719 L 0.433594 46.976562 L 42.269531 46.976562 L 42.269531 2.761719 Z M 0.433594 2.761719 "/>
</g>
</g>
<path style=" stroke:none;fill-rule:nonzero;fill:rgb(0%,0%,0%);fill-opacity:1;" d="M 72.3125 25.566406 L 72.3125 10.609375 L 76.101562 10.609375 L 76.101562 25.222656 L 78.074219 25.046875 L 78.074219 28.066406 L 76.101562 28.246094 L 76.101562 34.265625 L 72.3125 34.265625 L 72.3125 28.589844 L 65.789062 29.160156 L 65.789062 26.140625 Z M 61.40625 13.996094 L 61.40625 16.234375 L 64.78125 16.234375 L 64.78125 19.265625 L 61.40625 19.265625 L 61.40625 34.214844 L 58.257812 34.214844 L 58.257812 19.265625 L 54.621094 19.265625 L 54.621094 16.234375 L 58.257812 16.234375 L 58.257812 14.359375 L 54.933594 14.753906 L 54.933594 11.734375 L 64.726562 10.660156 L 64.726562 13.609375 Z M 64.574219 20.359375 L 65.300781 33.046875 L 62.464844 33.046875 L 61.789062 20.359375 Z M 54.339844 33.046875 L 55.140625 20.359375 L 57.925781 20.359375 L 57.167969 33.046875 Z M 67.511719 24.496094 L 65.507812 18.371094 L 68.882812 18.371094 L 70.960938 24.496094 Z M 68.136719 17.566406 L 65.996094 11.910156 L 69.484375 11.910156 L 71.636719 17.566406 Z M 68.136719 17.566406 "/>
<path style=" stroke:none;fill-rule:nonzero;fill:rgb(0%,0%,0%);fill-opacity:1;" d="M 85.636719 30.933594 L 90.757812 30.933594 L 91.121094 29.652344 L 94.269531 29.652344 L 93.460938 33.777344 L 81.898438 33.777344 L 81.898438 18.847656 L 93.355469 18.847656 L 93.355469 26.765625 L 90.519531 28.902344 L 88.058594 26.628906 L 89.824219 25.203125 L 89.824219 21.609375 L 85.636719 21.609375 Z M 103.515625 10.535156 L 103.515625 31.609375 L 99.671875 34.578125 L 97.4375 31.847656 L 99.671875 30.277344 L 99.671875 10.535156 Z M 90.238281 10.609375 L 94.808594 17.984375 L 90.363281 17.984375 L 87.644531 13.035156 L 84.808594 17.984375 L 80.289062 17.984375 L 85.015625 10.609375 Z M 95.203125 29.941406 L 95.203125 12.796875 L 98.371094 12.796875 L 98.371094 29.941406 Z M 95.203125 29.941406 "/>
<path style=" stroke:none;fill-rule:nonzero;fill:rgb(0%,0%,0%);fill-opacity:1;" d="M 113.101562 13.265625 L 115.957031 13.265625 L 115.957031 16.183594 L 113.101562 16.183594 L 113.101562 34.191406 L 109.828125 34.191406 L 109.828125 16.183594 L 106.507812 16.183594 L 106.507812 13.265625 L 109.828125 13.265625 L 109.828125 10.589844 L 113.101562 10.589844 Z M 125.460938 34.035156 L 122.96875 30.566406 L 120.582031 34.058594 L 116.082031 34.058594 L 120.734375 27.441406 L 116.582031 21.609375 L 120.632812 21.609375 L 122.792969 24.527344 L 124.871094 21.609375 L 129.046875 21.609375 L 125.027344 27.515625 L 129.875 34.035156 Z M 113.277344 17.878906 L 116.011719 17.878906 L 116.113281 19.996094 L 118.429688 15.796875 L 122.429688 15.796875 L 119.832031 20.796875 L 116.164062 20.796875 L 116.808594 32.496094 L 114.089844 32.496094 Z M 124.351562 10.609375 L 124.683594 12.066406 L 129.492188 12.066406 L 129.492188 15.066406 L 116.34375 15.066406 L 116.34375 12.066406 L 120.507812 12.066406 L 120.164062 10.609375 Z M 109.019531 33.046875 L 106.296875 33.046875 L 106.816406 17.878906 L 109.539062 17.878906 Z M 127.382812 15.871094 L 130.011719 20.671875 L 126.085938 20.671875 L 123.46875 15.871094 Z M 127.382812 15.871094 "/>
<path style=" stroke:none;fill-rule:nonzero;fill:rgb(0%,0%,0%);fill-opacity:1;" d="M 133.054688 33.828125 L 133.054688 11.003906 L 155.160156 11.003906 L 155.160156 33.828125 Z M 151.316406 13.972656 L 136.898438 13.972656 L 136.898438 30.902344 L 151.316406 30.902344 Z M 150.660156 19.546875 L 150.660156 22.128906 L 148.40625 22.128906 L 148.40625 27.496094 L 149 27.496094 L 149.207031 26.871094 L 151.160156 26.871094 L 150.453125 30.121094 L 145.085938 30.121094 L 145.085938 22.128906 L 143.410156 22.128906 L 141.730469 30.121094 L 138.351562 30.121094 L 137.523438 27.652344 L 138.53125 27.652344 L 139.808594 22.128906 L 137.59375 22.128906 L 137.59375 19.546875 Z M 149.652344 15.035156 L 149.652344 17.621094 L 138.425781 17.621094 L 138.425781 15.035156 Z M 149.652344 15.035156 "/>
<path style=" stroke:none;fill-rule:nonzero;fill:rgb(0%,0%,0%);fill-opacity:1;" d="M 55.0625 41.125 L 55.0625 46.851562 L 55.574219 46.851562 L 55.574219 44.878906 L 56.636719 43.742188 L 58.730469 46.851562 L 59.367188 46.851562 L 57.007812 43.347656 L 59.074219 41.125 L 58.449219 41.125 L 55.574219 44.15625 L 55.574219 41.125 Z M 55.0625 41.125 "/>
<path style=" stroke:none;fill-rule:nonzero;fill:rgb(0%,0%,0%);fill-opacity:1;" d="M 61.351562 41.125 L 61.351562 46.851562 L 65.363281 46.851562 L 65.363281 46.386719 L 61.863281 46.386719 L 61.863281 44.089844 L 65.003906 44.089844 L 65.003906 43.625 L 61.863281 43.625 L 61.863281 41.589844 L 65.300781 41.589844 L 65.300781 41.125 Z M 61.351562 41.125 "/>
<path style=" stroke:none;fill-rule:nonzero;fill:rgb(0%,0%,0%);fill-opacity:1;" d="M 67.347656 43.980469 C 67.347656 45.691406 68.230469 46.996094 69.847656 46.996094 C 71.117188 46.996094 71.816406 46.347656 72.148438 45.421875 L 71.636719 45.335938 C 71.328125 46.117188 70.738281 46.53125 69.847656 46.53125 C 68.679688 46.53125 67.867188 45.527344 67.867188 43.980469 C 67.867188 42.273438 68.65625 41.445312 69.847656 41.445312 C 70.667969 41.445312 71.304688 41.832031 71.566406 42.550781 L 72.09375 42.457031 C 71.839844 41.699219 71.140625 40.980469 69.847656 40.980469 C 68.085938 40.980469 67.347656 42.328125 67.347656 43.980469 Z M 67.347656 43.980469 "/>
<path style=" stroke:none;fill-rule:nonzero;fill:rgb(0%,0%,0%);fill-opacity:1;" d="M 74.34375 41.125 L 74.34375 46.851562 L 74.855469 46.851562 L 74.855469 44.089844 L 78.386719 44.089844 L 78.386719 46.851562 L 78.910156 46.851562 L 78.910156 41.125 L 78.386719 41.125 L 78.386719 43.625 L 74.855469 43.625 L 74.855469 41.125 Z M 74.34375 41.125 "/>
<path style=" stroke:none;fill-rule:nonzero;fill:rgb(0%,0%,0%);fill-opacity:1;" d="M 81.417969 41.125 L 81.417969 44.648438 C 81.417969 46.230469 82.261719 46.996094 83.621094 46.996094 C 84.917969 46.996094 85.800781 46.230469 85.800781 44.648438 L 85.800781 41.125 L 85.289062 41.125 L 85.289062 44.617188 C 85.289062 45.828125 84.699219 46.53125 83.621094 46.53125 C 82.480469 46.53125 81.9375 45.789062 81.9375 44.617188 L 81.9375 41.125 Z M 81.417969 41.125 "/>
<path style=" stroke:none;fill-rule:nonzero;fill:rgb(0%,0%,0%);fill-opacity:1;" d="M 87.6875 46.851562 L 88.222656 46.851562 L 88.902344 45.15625 L 91.574219 45.15625 L 92.246094 46.851562 L 92.78125 46.851562 L 90.523438 41.125 L 89.972656 41.125 Z M 90.246094 41.761719 L 90.253906 41.761719 L 91.398438 44.683594 L 89.089844 44.683594 Z M 90.246094 41.761719 "/>
<path style=" stroke:none;fill-rule:nonzero;fill:rgb(0%,0%,0%);fill-opacity:1;" d="M 94.710938 41.125 L 94.710938 46.851562 L 95.230469 46.851562 L 95.230469 41.960938 L 95.238281 41.960938 L 98.675781 46.851562 L 99.21875 46.851562 L 99.21875 41.125 L 98.699219 41.125 L 98.699219 46.015625 L 98.691406 46.015625 L 95.253906 41.125 Z M 94.710938 41.125 "/>
<path style=" stroke:none;fill-rule:nonzero;fill:rgb(0%,0%,0%);fill-opacity:1;" d="M 101.578125 43.980469 C 101.578125 45.929688 102.785156 46.996094 104.035156 46.996094 C 105.066406 46.996094 105.757812 46.378906 106.097656 45.621094 L 106.097656 46.851562 L 106.558594 46.851562 L 106.558594 43.84375 L 104.246094 43.84375 L 104.246094 44.3125 L 106.046875 44.3125 L 106.046875 44.984375 C 105.757812 45.867188 105.058594 46.53125 104.097656 46.53125 C 103.003906 46.53125 102.089844 45.527344 102.089844 43.980469 C 102.089844 42.488281 102.953125 41.445312 104.175781 41.445312 C 105.050781 41.445312 105.601562 41.898438 105.90625 42.65625 L 106.457031 42.558594 C 106.144531 41.832031 105.632812 40.980469 104.175781 40.980469 C 102.65625 40.980469 101.578125 42.171875 101.578125 43.980469 Z M 101.578125 43.980469 "/>
<path style=" stroke:none;fill-rule:nonzero;fill:rgb(0%,0%,0%);fill-opacity:1;" d="M 108.542969 41.125 L 110.441406 43.957031 L 108.488281 46.851562 L 109.09375 46.851562 L 110.738281 44.40625 L 112.390625 46.851562 L 113.003906 46.851562 L 111.042969 43.957031 L 112.949219 41.125 L 112.335938 41.125 L 110.738281 43.5 L 109.148438 41.125 Z M 108.542969 41.125 "/>
<path style=" stroke:none;fill-rule:nonzero;fill:rgb(0%,0%,0%);fill-opacity:1;" d="M 114.949219 41.125 L 114.949219 46.851562 L 115.46875 46.851562 L 115.46875 41.125 Z M 114.949219 41.125 "/>
<path style=" stroke:none;fill-rule:nonzero;fill:rgb(0%,0%,0%);fill-opacity:1;" d="M 117.394531 46.851562 L 117.929688 46.851562 L 118.609375 45.15625 L 121.28125 45.15625 L 121.953125 46.851562 L 122.488281 46.851562 L 120.230469 41.125 L 119.679688 41.125 Z M 119.953125 41.761719 L 119.960938 41.761719 L 121.105469 44.683594 L 118.796875 44.683594 Z M 119.953125 41.761719 "/>
<path style=" stroke:none;fill-rule:nonzero;fill:rgb(0%,0%,0%);fill-opacity:1;" d="M 124.644531 43.988281 C 124.644531 42.632812 125.359375 41.445312 126.714844 41.445312 C 128.082031 41.445312 128.808594 42.648438 128.808594 43.988281 C 128.808594 45.351562 128.121094 46.53125 126.714844 46.53125 C 125.367188 46.53125 124.644531 45.320312 124.644531 43.988281 Z M 124.125 43.988281 C 124.125 45.550781 124.992188 46.996094 126.714844 46.996094 C 128.507812 46.996094 129.320312 45.605469 129.320312 43.988281 C 129.320312 42.386719 128.476562 40.980469 126.714844 40.980469 C 124.984375 40.980469 124.125 42.378906 124.125 43.988281 Z M 124.125 43.988281 "/>
<path style=" stroke:none;fill-rule:nonzero;fill:rgb(0%,0%,0%);fill-opacity:1;" d="M 130.953125 41.125 L 133.039062 44.492188 L 133.039062 46.851562 L 133.558594 46.851562 L 133.558594 44.492188 L 135.605469 41.125 L 135.007812 41.125 L 133.308594 43.941406 L 133.300781 43.941406 L 131.554688 41.125 Z M 130.953125 41.125 "/>
<path style=" stroke:none;fill-rule:nonzero;fill:rgb(0%,0%,0%);fill-opacity:1;" d="M 137.496094 41.125 L 137.496094 44.648438 C 137.496094 46.230469 138.335938 46.996094 139.699219 46.996094 C 140.996094 46.996094 141.878906 46.230469 141.878906 44.648438 L 141.878906 41.125 L 141.367188 41.125 L 141.367188 44.617188 C 141.367188 45.828125 140.777344 46.53125 139.699219 46.53125 C 138.558594 46.53125 138.015625 45.789062 138.015625 44.617188 L 138.015625 41.125 Z M 137.496094 41.125 "/>
<path style=" stroke:none;fill-rule:nonzero;fill:rgb(0%,0%,0%);fill-opacity:1;" d="M 143.765625 46.851562 L 144.300781 46.851562 L 144.980469 45.15625 L 147.652344 45.15625 L 148.324219 46.851562 L 148.859375 46.851562 L 146.597656 41.125 L 146.046875 41.125 Z M 146.324219 41.761719 L 146.332031 41.761719 L 147.472656 44.683594 L 145.167969 44.683594 Z M 146.324219 41.761719 "/>
<path style=" stroke:none;fill-rule:nonzero;fill:rgb(0%,0%,0%);fill-opacity:1;" d="M 150.785156 41.125 L 150.785156 46.851562 L 151.304688 46.851562 L 151.304688 41.960938 L 151.3125 41.960938 L 154.753906 46.851562 L 155.292969 46.851562 L 155.292969 41.125 L 154.777344 41.125 L 154.777344 46.015625 L 154.769531 46.015625 L 151.328125 41.125 Z M 150.785156 41.125 "/>
</g>
</svg>
